 <svg  version="1.0" xmlns="http://www.w3.org/2000/svg"  width="512.000000pt" height="512.000000pt" viewBox="0 0 512.000000 512.000000"  preserveAspectRatio="xMidYMid meet">  <g transform="translate(0.000000,512.000000) scale(0.100000,-0.100000)" fill="#ffffff" stroke="none"> <path d="M1935 4436 c-541 -127 -1012 -539 -1217 -1066 -47 -120 -49 -111 22 -108 l61 3 37 85 c199 457 560 795 1002 938 85 28 117 36 213 57 27 5 28 8 25 58 -4 64 -6 65 -143 33z"/> <path d="M2513 4453 c-8 -3 -13 -23 -13 -48 0 -50 10 -58 75 -68 132 -21 389 -129 540 -227 286 -187 533 -489 646 -787 l24 -63 57 0 c42 0 58 4 58 13 0 44 -81 227 -151 344 -206 341 -517 610 -859 744 -145 57 -343 106 -377 92z"/> <path d="M2176 4230 c-58 -23 -107 -67 -144 -129 -21 -35 -27 -61 -30 -127 -4 -75 -2 -89 22 -138 91 -186 332 -223 473 -73 62 66 88 135 80 217 -10 113 -66 196 -162 241 -74 35 -163 39 -239 9z m-6 -245 c0 -94 90 -153 170 -112 35 18 70 74 70 113 0 31 3 34 30 34 29 0 30 -1 30 -50 0 -201 -268 -259 -351 -75 -33 72 -23 125 22 125 27 0 29 -3 29 -35z"/> <path d="M1684 3940 c-13 -31 -24 -42 -60 -56 -61 -23 -57 -52 9 -68 20 -5 34 -19 49 -51 12 -25 26 -45 31 -45 5 0 15 17 24 39 11 29 25 43 56 57 56 25 58 47 8 66 -29 12 -45 27 -60 57 -12 23 -26 41 -31 41 -6 0 -17 -18 -26 -40z"/> <path d="M2832 3937 c-16 -36 -26 -45 -61 -55 -58 -18 -53 -50 12 -66 20 -5 34 -19 49 -51 12 -25 25 -45 30 -45 4 0 17 18 28 40 13 26 33 46 58 58 51 24 52 45 2 65 -33 13 -44 24 -57 56 -9 23 -22 41 -29 41 -7 0 -22 -19 -32 -43z"/> <path d="M1281 3755 c-15 -35 -26 -46 -53 -53 -49 -12 -51 -46 -3 -62 28 -9 41 -22 58 -56 11 -24 26 -44 32 -44 7 0 19 18 27 39 12 29 26 45 54 58 49 23 56 50 17 59 -38 9 -60 30 -73 70 -16 46 -35 43 -59 -11z"/> <path d="M3241 3755 c-16 -36 -26 -47 -50 -51 -63 -13 -63 -55 1 -69 23 -6 34 -17 49 -51 11 -24 24 -44 29 -44 5 0 19 18 30 40 13 26 33 46 58 58 54 25 50 41 -18 72 -8 4 -25 26 -38 48 -13 23 -27 42 -32 42 -5 0 -18 -20 -29 -45z"/> <path d="M1934 3645 c-38 -18 -96 -56 -130 -83 -49 -40 -70 -50 -111 -55 -67 -8 -120 -36 -166 -86 -74 -82 -98 -172 -72 -273 14 -56 14 -65 -1 -105 -9 -23 -18 -43 -19 -43 -1 0 -16 7 -34 16 -29 14 -34 14 -56 0 -20 -13 -27 -14 -50 -2 -34 18 -73 7 -99 -27 -15 -21 -21 -47 -24 -116 -5 -112 3 -156 33 -187 23 -23 30 -24 155 -24 72 0 140 5 151 10 22 12 49 61 49 90 0 19 5 20 150 20 l151 0 -12 -22 c-6 -13 -18 -30 -25 -39 -12 -14 -10 -29 17 -112 l32 -96 46 -3 c44 -3 46 -4 46 -33 0 -30 -1 -30 -60 -33 -78 -4 -87 -12 -83 -81 l3 -56 67 -3 c63 -3 68 -5 74 -27 10 -41 -1 -55 -45 -55 -44 0 -41 6 -71 -160 -12 -64 -21 -80 -50 -80 -36 0 -38 13 -19 110 10 52 18 101 18 108 1 9 -66 12 -304 12 l-305 0 0 -45 0 -45 238 0 c266 0 287 -4 264 -54 l-12 -26 -246 0 -246 0 -28 -30 -28 -30 -127 0 c-112 0 -126 -2 -121 -16 3 -8 34 -57 68 -107 80 -117 273 -311 398 -399 499 -353 1125 -405 1660 -138 190 95 395 256 527 414 78 92 163 216 163 235 0 7 -31 11 -86 11 -83 0 -87 1 -112 30 l-26 30 -288 0 -288 0 -12 26 c-23 51 -5 54 304 54 l278 0 0 45 0 45 -348 0 -349 0 19 -101 c22 -112 20 -131 -14 -125 -13 3 -26 5 -29 5 -4 1 -17 53 -29 115 l-22 115 -42 3 c-40 3 -41 4 -41 38 l0 35 65 3 c36 2 68 8 72 15 13 20 9 104 -5 115 -7 6 -40 12 -72 14 -59 3 -60 3 -60 33 0 28 3 30 44 35 l44 5 27 80 c15 44 30 87 34 95 4 9 -4 30 -19 50 l-26 35 143 3 c78 1 148 0 155 -2 7 -3 13 -16 13 -30 0 -13 13 -38 29 -55 l29 -31 169 0 c188 0 203 4 229 66 21 50 19 200 -4 244 -23 47 -65 67 -95 47 -20 -13 -26 -13 -50 -1 -23 13 -31 13 -54 1 -23 -12 -30 -12 -53 1 -25 15 -30 14 -55 -2 -15 -10 -28 -16 -29 -14 -1 2 -12 22 -24 45 -20 39 -20 45 -7 77 20 46 19 141 -1 199 -32 94 -149 187 -236 187 -31 0 -52 10 -105 51 -67 51 -191 119 -218 119 -13 0 -15 -37 -15 -293 l0 -293 -28 -27 c-20 -20 -39 -27 -66 -27 -82 0 -106 42 -106 183 0 101 -7 117 -50 117 -49 0 -60 -26 -60 -138 0 -92 -2 -103 -25 -130 -30 -35 -69 -45 -111 -27 -63 26 -64 29 -64 347 0 237 -2 288 -14 288 -7 0 -44 -16 -82 -35z m-14 -365 c0 -175 -3 -250 -11 -250 -6 0 -26 15 -44 33 -25 25 -34 45 -40 85 -8 59 -10 59 -80 -1 l-39 -34 27 -37 c16 -20 40 -61 53 -91 l26 -55 480 2 481 3 13 38 c8 21 30 61 50 89 20 27 33 53 28 57 -53 46 -102 80 -107 74 -4 -3 -7 -22 -7 -40 0 -41 -22 -86 -52 -107 -48 -34 -48 -33 -48 234 0 176 3 250 11 250 6 0 38 -27 70 -60 44 -45 66 -60 86 -60 76 0 156 -48 190 -113 22 -43 20 -114 -4 -169 -19 -41 -19 -48 -7 -59 8 -7 24 -25 36 -41 17 -24 18 -34 9 -51 -6 -12 -12 -42 -13 -67 l-3 -45 -732 -3 -733 -2 0 48 c0 27 -7 57 -16 70 -17 25 -11 42 33 87 19 20 19 21 -5 74 -19 42 -23 62 -18 100 12 94 88 160 193 169 29 2 53 9 53 14 0 12 98 108 111 108 5 0 9 -102 9 -250z m-642 -362 c15 -15 16 -140 0 -156 -7 -7 -17 -8 -30 -1 -15 8 -18 22 -18 84 0 68 4 80 31 84 3 1 10 -4 17 -11z m106 6 c24 -9 23 -159 0 -168 -31 -12 -44 13 -44 83 0 39 5 72 12 79 14 14 12 14 32 6z m110 0 c13 -5 16 -22 16 -84 0 -78 -7 -93 -37 -83 -20 7 -17 173 3 173 1 0 9 -3 18 -6z m1625 -8 c7 -9 11 -41 9 -82 -3 -58 -6 -69 -22 -72 -26 -5 -36 15 -36 76 0 77 22 111 49 78z m109 -71 c3 -80 -8 -106 -35 -83 -18 14 -18 154 0 161 26 11 32 -2 35 -78z m100 73 c17 -17 16 -154 -1 -161 -30 -11 -40 10 -38 83 2 90 10 107 39 78z m112 -7 c16 -31 13 -127 -6 -146 -12 -12 -19 -13 -30 -4 -19 15 -20 155 -1 162 21 9 26 7 37 -12z m-977 -402 c37 -17 47 -50 47 -149 0 -99 -10 -132 -47 -149 -14 -7 -87 -11 -179 -11 l-156 0 -29 29 c-28 29 -29 32 -28 128 1 112 5 130 40 149 31 17 316 20 352 3z m-892 -578 c20 -16 22 -23 13 -38 -10 -16 -32 -18 -254 -21 -251 -2 -270 0 -270 39 0 34 30 38 261 39 210 0 229 -1 250 -19z m1950 9 c21 -12 25 -40 7 -58 -9 -9 -81 -12 -265 -12 -241 0 -253 1 -263 20 -8 15 -6 24 10 40 19 19 32 20 256 20 143 0 243 -4 255 -10z m-701 -21 c25 -11 56 -30 68 -42 29 -27 62 -89 62 -117 0 -18 -6 -20 -60 -20 -56 0 -60 2 -75 30 -39 76 -154 66 -186 -17 -5 -13 -9 -71 -9 -129 0 -147 22 -184 107 -184 45 0 76 24 98 75 13 33 17 35 59 35 52 0 76 -8 76 -24 0 -65 -66 -156 -135 -187 -53 -25 -147 -24 -200 0 -47 22 -99 74 -115 116 -18 45 -24 201 -12 280 15 90 49 141 121 178 67 33 136 36 201 6z m-990 -239 l5 -235 96 4 c134 5 141 2 137 -62 l-3 -52 -175 0 -175 0 -3 280 c-1 154 0 286 3 293 3 9 21 12 57 10 l53 -3 5 -235z m470 11 c0 -261 -2 -254 82 -249 l53 3 3 -58 3 -58 -123 3 -123 3 -3 293 -2 292 55 0 55 0 0 -229z m-822 67 c18 -18 14 -46 -7 -58 -11 -5 -64 -10 -119 -10 -85 0 -101 3 -116 19 -14 15 -15 24 -6 40 10 19 19 21 123 21 75 0 117 -4 125 -12z m1870 0 c18 -18 14 -46 -7 -58 -21 -11 -191 -14 -228 -4 -27 7 -39 40 -23 59 16 19 239 22 258 3z"/> <path d="M2166 2432 c-11 -18 7 -51 31 -57 31 -7 27 -39 -5 -43 -17 -3 -22 -10 -22 -33 l0 -29 120 0 120 0 0 29 c0 28 -3 30 -42 33 -35 2 -43 7 -43 23 0 16 8 21 43 23 39 3 42 5 42 33 l0 29 -119 0 c-66 0 -122 -4 -125 -8z"/> <path d="M1181 3485 c-9 -25 -23 -40 -47 -50 -43 -18 -43 -31 -1 -49 21 -8 38 -25 47 -45 15 -37 30 -36 48 3 8 15 29 34 48 42 42 18 43 32 4 46 -20 6 -38 24 -51 49 -10 21 -23 39 -27 39 -4 0 -14 -16 -21 -35z"/> <path d="M3355 3485 c-10 -25 -25 -40 -50 -50 -44 -19 -44 -31 -1 -49 20 -8 42 -28 51 -45 20 -39 29 -39 46 0 8 20 25 37 46 45 42 18 42 35 0 54 -18 9 -38 29 -46 48 -19 41 -27 40 -46 -3z"/> <path d="M987 3234 c-4 -4 -7 -268 -7 -586 l0 -578 65 0 65 0 -2 583 -3 582 -55 3 c-31 2 -59 0 -63 -4z"/> <path d="M3555 3228 c-3 -7 -4 -269 -3 -583 l3 -570 65 0 65 0 3 574 c2 453 0 576 -10 583 -21 13 -118 10 -123 -4z"/> <path d="M792 2623 l3 -548 39 -3 c22 -2 50 -1 63 3 l23 5 -2 543 -3 542 -63 3 -62 3 2 -548z"/> <path d="M3752 2623 l3 -548 60 0 60 0 5 538 c3 295 4 542 2 547 -2 6 -33 10 -68 10 l-64 0 2 -547z"/> <path d="M658 3072 l-48 -3 0 -433 c0 -476 -4 -446 60 -446 64 0 60 -30 60 445 0 338 -3 434 -12 436 -7 2 -34 3 -60 1z"/> <path d="M3953 3073 c-18 -7 -19 -853 -1 -871 7 -7 33 -12 58 -12 25 0 51 5 58 12 17 17 17 849 0 866 -12 12 -91 15 -115 5z"/> <path d="M4172 2923 l-42 -4 2 -292 3 -292 39 -3 c22 -2 50 -1 63 2 l23 6 0 289 c0 254 -2 290 -16 295 -9 3 -19 5 -22 4 -4 -1 -26 -3 -50 -5z"/> <path d="M442 2628 l3 -293 29 -3 c15 -2 39 -1 52 2 l24 6 0 290 0 290 -55 0 -55 0 2 -292z"/> <path d="M307 2743 c-4 -3 -7 -64 -7 -135 l0 -128 39 0 39 0 7 114 c9 139 5 156 -39 156 -18 0 -36 -3 -39 -7z"/> <path d="M1625 2565 c-61 -81 -171 -86 -253 -12 -18 17 -27 19 -50 11 -46 -16 -41 -49 16 -104 41 -39 61 -50 106 -60 101 -21 208 19 265 98 36 51 26 83 -30 97 -21 5 -30 0 -54 -30z"/> <path d="M2882 2590 c-31 -13 -36 -33 -19 -67 21 -38 63 -77 117 -104 34 -18 61 -23 115 -23 82 0 134 23 184 79 38 43 38 75 1 89 -21 7 -34 3 -72 -24 -83 -59 -194 -46 -249 29 -24 32 -38 36 -77 21z"/> </g> </svg> 