<?xml version="1.0" standalone="no"?>
<!DOCTYPE svg PUBLIC "-//W3C//DTD SVG 20010904//EN"
 "http://www.w3.org/TR/2001/REC-SVG-20010904/DTD/svg10.dtd">
<svg version="1.0" xmlns="http://www.w3.org/2000/svg"
 width="512.000000pt" height="512.000000pt" viewBox="0 0 512.000000 512.000000"
 preserveAspectRatio="xMidYMid meet">

<g transform="translate(0.000000,512.000000) scale(0.100000,-0.100000)"
fill="#000000" stroke="none">
<path d="M2230 4349 c-178 -37 -391 -121 -560 -221 -385 -226 -700 -599 -864
-1023 -19 -49 -31 -94 -27 -98 5 -4 36 -7 70 -5 l62 3 33 80 c164 402 469 748
844 956 155 86 330 150 537 195 39 9 40 10 43 57 3 48 -9 78 -32 76 -6 0 -54
-9 -106 -20z"/>
<path d="M2856 4363 c-9 -9 -7 -111 2 -117 5 -3 43 -12 86 -21 113 -23 293
-88 415 -150 413 -206 752 -574 916 -990 l31 -80 67 -3 c54 -2 67 0 67 12 0
29 -53 162 -107 271 -104 210 -242 395 -425 571 -240 230 -533 395 -842 473
-122 31 -200 44 -210 34z"/>
<path d="M2510 4121 c-90 -29 -174 -104 -213 -189 -16 -36 -21 -67 -21 -132 0
-65 5 -96 21 -132 30 -66 96 -133 162 -165 49 -24 68 -28 146 -28 106 0 159
21 230 90 160 156 122 422 -77 530 -45 25 -66 29 -138 32 -47 1 -96 -1 -110
-6z m-40 -301 c0 -43 5 -56 33 -86 51 -56 135 -61 194 -13 23 20 43 72 43 114
0 35 1 36 33 33 32 -3 32 -4 35 -61 3 -48 -1 -66 -23 -103 -72 -122 -247 -140
-338 -33 -34 40 -57 96 -57 142 0 45 10 57 46 57 l34 0 0 -50z"/>
<path d="M1920 3787 c-22 -49 -46 -70 -93 -81 -22 -5 -28 -12 -25 -29 2 -16
15 -26 47 -36 38 -12 46 -20 64 -62 12 -27 27 -49 34 -49 8 0 22 20 33 45 16
37 28 49 65 65 60 26 61 53 3 72 -35 11 -47 22 -63 56 -34 70 -42 72 -65 19z"/>
<path d="M3229 3786 c-21 -48 -45 -69 -91 -80 -21 -5 -28 -12 -28 -31 0 -20 7
-26 38 -35 43 -11 63 -30 82 -77 17 -45 37 -41 60 12 16 37 28 49 65 65 58 25
61 53 8 70 -48 16 -54 21 -74 72 -9 23 -21 44 -28 46 -6 2 -20 -17 -32 -42z"/>
<path d="M1462 3571 c-17 -42 -26 -51 -63 -63 -48 -16 -67 -53 -32 -64 63 -19
80 -33 97 -78 10 -25 24 -46 31 -46 7 0 21 21 31 46 14 38 25 50 63 67 61 30
64 51 9 69 -37 12 -46 21 -67 66 -14 29 -30 52 -37 52 -6 0 -20 -22 -32 -49z"/>
<path d="M3690 3571 c-19 -43 -28 -52 -64 -64 -32 -11 -41 -19 -41 -37 0 -17
8 -26 30 -33 43 -14 56 -26 77 -74 10 -24 23 -43 28 -43 5 0 21 23 37 52 21
39 36 54 61 63 63 20 61 52 -3 72 -21 6 -37 23 -55 58 -14 27 -31 50 -37 52
-7 3 -22 -18 -33 -46z"/>
<path d="M2245 3463 c-65 -27 -209 -118 -239 -152 -13 -14 -31 -21 -57 -21
-135 0 -271 -126 -299 -275 -11 -57 -10 -76 5 -137 16 -66 16 -73 -1 -117 -9
-25 -18 -47 -19 -49 -1 -2 -18 5 -38 14 -32 15 -37 15 -66 1 -27 -14 -34 -14
-60 -1 -38 19 -75 10 -106 -28 -22 -26 -25 -40 -27 -116 -4 -151 -3 -180 12
-207 25 -47 56 -55 211 -55 l141 0 33 33 c20 20 36 48 40 70 l7 37 164 0 c117
0 164 -3 164 -12 0 -6 -11 -26 -25 -44 l-25 -33 36 -109 36 -109 42 4 c50 5
69 -11 64 -54 -3 -27 -5 -28 -73 -31 -38 -2 -75 -8 -82 -14 -17 -14 -17 -122
0 -136 7 -6 44 -12 82 -14 l70 -3 0 -40 0 -40 -47 -3 -46 -3 -11 -47 c-6 -26
-18 -86 -27 -134 l-17 -88 -38 0 c-47 0 -47 -1 -19 142 11 57 20 106 20 111 0
4 -157 7 -350 7 l-350 0 0 -55 0 -55 285 0 285 0 6 -25 c13 -54 6 -55 -302
-55 -156 0 -284 -4 -284 -9 0 -4 -11 -20 -25 -35 -24 -26 -25 -26 -170 -26
-80 0 -145 -3 -145 -6 0 -12 57 -102 114 -178 174 -235 437 -451 708 -581 361
-174 761 -224 1152 -144 282 57 568 194 806 386 88 71 236 222 301 308 63 82
129 185 129 202 0 10 -23 13 -100 13 l-99 0 -28 35 -28 35 -326 0 c-355 0
-359 1 -345 55 l6 25 330 0 330 0 0 55 0 55 -398 0 -398 0 22 -107 c32 -149
32 -153 -10 -153 -19 0 -37 4 -41 9 -4 7 -55 243 -55 257 0 2 -21 4 -47 6 -51
3 -61 16 -49 64 6 22 11 24 74 24 40 0 73 5 80 12 16 16 16 123 -1 136 -7 6
-44 12 -82 14 l-70 3 0 35 0 35 51 3 52 3 12 47 c7 26 24 75 38 110 l24 63
-26 37 c-14 21 -26 41 -26 45 0 4 76 7 169 7 l169 0 7 -37 c4 -22 20 -50 40
-70 l33 -33 191 0 191 0 38 34 37 34 3 126 c4 144 -9 187 -63 213 -29 14 -36
14 -61 1 -25 -12 -33 -12 -58 0 -25 12 -33 12 -59 0 -27 -13 -34 -13 -60 0
-26 13 -33 13 -64 -2 -20 -9 -36 -16 -37 -14 -44 88 -46 96 -29 135 23 56 21
165 -6 235 -26 67 -97 146 -160 178 -25 12 -72 25 -105 27 -51 5 -67 11 -96
38 -70 64 -260 172 -282 159 -4 -3 -8 -154 -8 -336 l0 -330 -34 -34 c-26 -26
-42 -34 -70 -34 -43 0 -90 22 -102 47 -4 10 -10 74 -13 141 -6 115 -8 125 -30
143 -28 23 -50 24 -77 5 -17 -13 -20 -31 -24 -146 l-5 -132 -33 -29 c-46 -41
-108 -41 -154 0 l-33 29 -5 340 -5 340 -60 -25z m-69 -721 c-9 -8 -66 40 -81
68 -8 16 -15 45 -15 64 0 68 -6 69 -75 15 l-64 -50 44 -65 c24 -35 50 -82 56
-104 l12 -40 551 0 552 0 12 43 c7 23 33 69 57 102 25 33 41 62 37 65 -4 4
-30 25 -58 48 -29 23 -57 42 -63 42 -6 0 -11 -18 -11 -41 0 -54 -26 -107 -64
-130 -17 -10 -34 -19 -38 -19 -5 0 -8 128 -8 285 l0 286 29 -15 c28 -15 111
-101 111 -116 0 -4 31 -10 70 -12 53 -4 79 -12 110 -32 94 -62 125 -174 77
-279 l-25 -56 20 -18 c11 -10 29 -31 40 -46 18 -25 19 -32 8 -55 -7 -15 -15
-52 -19 -82 l-6 -54 -645 -2 c-355 0 -727 1 -827 4 l-183 4 0 47 c0 28 -8 58
-20 79 -23 37 -19 51 29 96 l30 29 -25 48 c-76 150 27 319 195 319 48 0 51 2
81 45 17 25 48 56 68 70 l37 25 3 -281 c1 -155 0 -284 -2 -287z m-725 -122
c16 -9 19 -22 19 -89 0 -83 -11 -106 -47 -99 -15 3 -18 16 -21 87 -2 52 1 88
9 97 14 17 15 17 40 4z m134 -6 c12 -13 15 -33 13 -92 -3 -79 -17 -102 -52
-89 -13 5 -16 22 -16 96 0 85 4 97 32 100 4 1 14 -6 23 -15z m133 -92 c-3 -85
-3 -87 -28 -87 -25 0 -25 1 -28 89 -3 95 5 114 40 95 16 -9 18 -21 16 -97z
m1840 0 c-3 -85 -3 -87 -28 -87 -24 0 -25 2 -28 83 -3 93 7 119 39 101 18 -9
19 -20 17 -97z m120 0 c-3 -85 -3 -87 -28 -87 -25 0 -25 1 -28 89 -3 95 5 114
40 95 16 -9 18 -21 16 -97z m120 0 c-3 -85 -3 -87 -28 -87 -25 0 -25 1 -28 89
-3 95 5 114 40 95 16 -9 18 -21 16 -97z m111 94 c8 -9 11 -45 9 -98 -3 -81 -4
-83 -28 -83 -25 0 -25 1 -28 89 -2 65 1 92 10 98 18 11 24 10 37 -6z m-1100
-471 c16 -8 31 -22 35 -30 3 -9 6 -70 6 -135 0 -65 -3 -126 -6 -135 -15 -37
-56 -45 -239 -45 -246 0 -244 -1 -245 181 0 180 -3 178 243 179 137 0 184 -3
206 -15z m-1015 -657 c20 -28 20 -33 0 -52 -13 -14 -54 -16 -289 -16 l-275 0
-16 25 c-16 24 -16 27 1 45 17 19 32 20 291 20 271 0 273 0 288 -22z m2220 6
c9 -8 16 -22 16 -29 0 -7 -7 -21 -16 -29 -13 -14 -54 -16 -298 -16 -296 0
-306 1 -306 45 0 44 10 45 306 45 244 0 285 -2 298 -16z m-788 -22 c68 -35
134 -124 134 -182 0 -18 -6 -20 -70 -20 -68 0 -69 0 -85 33 -22 46 -67 71
-117 64 -84 -11 -108 -61 -108 -223 0 -131 13 -175 61 -199 67 -35 138 -9 164
60 l18 45 74 0 75 0 -7 -36 c-24 -133 -126 -216 -264 -218 -118 -1 -209 59
-246 163 -20 57 -20 318 -1 374 27 73 78 125 154 153 53 20 166 13 218 -14z
m-1148 -264 l2 -268 135 0 c133 0 135 0 141 -23 3 -13 4 -41 2 -63 l-3 -39
-200 0 -200 0 -3 320 c-1 176 0 326 3 333 3 9 22 12 62 10 l58 -3 3 -267z
m540 0 l2 -267 78 -3 77 -3 0 -60 0 -60 -140 0 -140 0 -3 320 c-1 176 0 326 3
333 3 9 22 12 62 10 l58 -3 3 -267z m-934 86 c9 -8 16 -22 16 -29 0 -7 -7 -21
-16 -29 -23 -24 -250 -23 -276 1 -22 20 -23 37 -2 57 23 23 255 23 278 0z
m2124 4 c18 -18 14 -56 -7 -68 -11 -5 -72 -10 -136 -10 -126 0 -155 8 -155 43
0 42 16 47 155 47 89 0 135 -4 143 -12z"/>
<path d="M2588 2073 l-128 -4 0 -34 c0 -30 4 -35 23 -35 54 -1 63 -46 10 -52
-24 -3 -28 -8 -28 -33 l0 -30 137 -3 c126 -2 137 -1 142 16 12 36 -4 55 -40
49 -38 -6 -70 13 -61 37 5 11 19 16 51 16 45 0 56 10 56 50 0 14 -27 37 -33
28 -1 -1 -59 -4 -129 -5z"/>
<path d="M1341 3255 c-15 -35 -26 -46 -53 -53 -42 -11 -42 -32 1 -53 20 -9 42
-31 53 -52 10 -21 23 -37 28 -37 5 0 18 16 28 37 11 21 33 43 53 52 43 21 43
42 1 53 -27 7 -38 18 -53 53 -11 25 -24 45 -29 45 -5 0 -18 -20 -29 -45z"/>
<path d="M3815 3258 c-14 -30 -29 -46 -50 -53 -55 -18 -54 -37 1 -60 24 -10
39 -26 49 -50 19 -44 37 -45 56 -2 9 20 28 39 52 50 46 23 47 42 3 61 -23 10
-42 28 -56 55 -11 23 -24 41 -28 41 -4 0 -16 -19 -27 -42z"/>
<path d="M1117 2974 c-4 -4 -7 -301 -7 -661 l0 -653 23 -8 c12 -5 46 -6 75 -4
l52 4 -2 661 -3 662 -65 3 c-36 2 -69 0 -73 -4z"/>
<path d="M4045 2968 c-3 -7 -4 -305 -3 -663 l3 -650 75 0 75 0 3 649 c1 471
-1 653 -9 662 -15 18 -138 19 -144 2z"/>
<path d="M902 2278 l3 -623 61 -3 c43 -2 64 1 72 11 9 11 11 171 10 623 l-3
609 -73 3 -72 3 2 -623z"/>
<path d="M4267 2894 c-4 -4 -7 -281 -7 -614 0 -511 2 -609 14 -619 9 -7 40
-11 78 -9 l63 3 0 620 0 620 -70 3 c-39 1 -74 0 -78 -4z"/>
<path d="M4545 2791 l-60 -6 -3 -484 c-1 -349 1 -488 9 -497 14 -18 120 -19
137 -2 17 17 17 969 0 986 -7 7 -14 11 -17 10 -4 -1 -33 -4 -66 -7z"/>
<path d="M697 2783 c-4 -3 -7 -223 -7 -488 0 -405 2 -484 14 -494 8 -7 37 -11
68 -9 l53 3 5 488 c3 268 4 492 2 497 -4 11 -125 14 -135 3z"/>
<path d="M502 2288 l3 -333 60 0 60 0 0 330 0 330 -63 3 -62 3 2 -333z"/>
<path d="M4705 2608 c-3 -7 -4 -157 -3 -333 l3 -320 67 -3 c63 -3 68 -1 73 20
3 13 4 163 3 333 l-3 310 -68 3 c-48 2 -69 -1 -72 -10z"/>
<path d="M345 2408 c-3 -8 -4 -77 -3 -153 l3 -140 45 0 45 0 0 150 0 150 -43
3 c-29 2 -44 -1 -47 -10z"/>
<path d="M1852 2215 c-32 -50 -98 -79 -168 -73 -50 4 -67 12 -125 59 -22 17
-32 20 -55 12 -41 -13 -42 -48 -5 -100 98 -135 344 -121 445 26 43 62 31 97
-36 107 -29 5 -35 1 -56 -31z"/>
<path d="M3268 2234 c-35 -19 -35 -30 2 -86 69 -104 213 -153 342 -118 82 23
179 128 150 163 -26 31 -58 29 -112 -8 -59 -40 -101 -50 -168 -40 -39 6 -55
15 -95 56 -50 52 -73 59 -119 33z"/>
</g>
</svg>
