<?xml version="1.0" standalone="no"?>
<!DOCTYPE svg PUBLIC "-//W3C//DTD SVG 20010904//EN"
 "http://www.w3.org/TR/2001/REC-SVG-20010904/DTD/svg10.dtd">
<svg version="1.0" xmlns="http://www.w3.org/2000/svg"
 width="800.000000pt" height="265.000000pt" viewBox="0 0 800.000000 265.000000"
 preserveAspectRatio="xMidYMid meet">

<g transform="translate(0.000000,265.000000) scale(0.100000,-0.100000)"
fill="#000000" stroke="none">
<path d="M1066 2627 c-54 -31 -76 -76 -76 -159 l0 -68 -147 0 c-167 0 -201
-10 -240 -69 -19 -28 -23 -48 -23 -107 l0 -72 -162 -4 c-246 -5 -248 -7 -248
-311 0 -166 -3 -207 -14 -217 -8 -6 -16 -21 -18 -33 -3 -20 -10 -22 -71 -25
l-67 -3 0 -234 0 -235 64 0 64 0 21 -42 c18 -38 20 -66 23 -255 l3 -212 29
-30 c41 -43 79 -51 239 -51 l137 0 0 -74 c0 -59 4 -79 23 -107 39 -59 73 -69
240 -69 l147 0 0 -65 c0 -81 20 -124 73 -159 40 -25 46 -26 187 -26 141 0 147
1 187 26 74 49 73 40 73 532 l0 437 33 16 c17 8 41 32 52 52 l20 37 2382 0
2381 0 19 -38 c11 -21 35 -46 56 -57 l37 -20 0 -436 c0 -436 0 -436 23 -469
48 -71 61 -75 237 -75 145 0 161 2 186 21 55 40 69 70 72 152 l4 77 151 0
c135 0 156 2 187 20 50 30 70 75 70 163 l0 72 164 0 c150 0 165 2 190 21 52
41 56 61 56 278 0 184 2 204 21 241 l21 40 64 0 64 0 0 235 0 235 -64 0 -64 0
-21 43 c-19 39 -21 61 -21 243 0 180 -2 202 -20 231 -36 59 -52 64 -227 66
l-158 2 -5 82 c-4 62 -11 90 -26 110 -38 51 -65 58 -229 58 l-150 0 -5 77 c-6
83 -21 113 -74 152 -25 19 -41 21 -186 21 -176 0 -189 -4 -237 -75 -23 -33
-23 -33 -23 -471 0 -312 -3 -439 -11 -439 -23 0 -72 -44 -85 -76 l-14 -34
-2383 0 -2382 1 -24 39 c-13 21 -37 44 -52 51 l-28 11 -3 452 c-3 433 -4 452
-23 478 -43 58 -79 68 -236 68 -131 0 -148 -2 -183 -23z m334 -42 c60 -31 60
-30 60 -530 l0 -455 24 0 c34 0 66 -30 74 -68 l7 -32 2432 -3 2431 -2 6 34 c7
45 42 81 78 81 l28 0 0 450 c0 481 1 494 49 520 26 14 297 13 323 -1 34 -18
48 -70 48 -179 l0 -101 26 20 c24 19 40 21 179 21 l153 0 26 -31 c25 -29 26
-36 26 -145 l0 -114 20 20 c18 18 33 20 179 20 223 0 205 22 209 -267 3 -186
6 -229 18 -236 8 -4 14 -23 14 -42 l0 -34 68 -3 67 -3 0 -180 0 -180 -67 -3
-68 -3 0 -35 c0 -22 -6 -37 -15 -40 -13 -5 -15 -39 -15 -221 0 -223 -6 -262
-45 -277 -9 -3 -86 -6 -171 -6 -138 0 -156 2 -173 19 -19 19 -19 18 -23 -101
-3 -117 -4 -120 -31 -144 -27 -23 -34 -24 -176 -24 -135 0 -151 2 -175 21
l-26 20 0 -106 c0 -112 -12 -155 -49 -175 -25 -13 -297 -13 -322 0 -48 26 -49
39 -49 520 l0 450 -28 0 c-37 0 -71 37 -79 84 l-6 36 -2431 -2 -2431 -3 -3
-30 c-4 -38 -35 -71 -73 -79 l-29 -6 0 -450 c0 -495 0 -494 -60 -525 -21 -11
-62 -15 -152 -15 -105 0 -128 3 -156 20 -44 27 -52 54 -52 177 l0 106 -23 -21
c-22 -21 -33 -22 -178 -22 -205 1 -209 4 -209 175 l0 106 -22 -15 c-18 -13
-54 -16 -179 -16 -220 0 -203 -22 -207 267 -3 186 -6 229 -18 236 -8 5 -14 23
-14 42 l0 35 -70 0 -70 0 0 185 0 185 70 0 70 0 0 35 c0 19 6 37 14 42 12 7
15 50 18 235 3 206 5 228 22 247 18 20 29 21 184 21 140 0 168 -3 184 -17 17
-15 18 -12 18 91 0 176 18 190 232 184 118 -3 128 -5 152 -27 l26 -24 0 109
c0 119 16 165 63 184 39 16 264 12 297 -5z"/>
<path d="M1117 2532 c-16 -17 -17 -115 -17 -1205 0 -1174 0 -1187 20 -1207 18
-18 33 -20 128 -20 80 0 113 4 128 15 17 13 9 14 -81 15 -112 1 -109 6 24 41
l84 22 -6 141 c-4 78 -7 222 -8 321 -1 196 -16 189 -20 -10 l-2 -110 -9 105
c-5 58 -12 143 -16 190 l-7 85 -6 -115 c-3 -63 -8 -149 -9 -190 l-3 -75 -7 75
c-4 41 -9 122 -10 180 -2 87 -4 98 -11 65 -5 -22 -12 -103 -16 -180 l-7 -140
-10 185 -11 185 -10 -180 c-12 -205 -24 -190 -26 30 -1 147 -16 147 -19 0 -1
-49 -6 -119 -10 -155 l-7 -65 -3 90 c-1 50 -6 133 -10 185 l-7 95 -2 -80 c-11
-330 -18 -147 -18 500 0 647 7 830 18 500 l2 -80 7 95 c4 52 9 136 10 185 l3
90 7 -65 c4 -36 9 -105 10 -155 3 -155 18 -143 20 15 2 211 16 216 26 10 l8
-175 11 185 11 185 7 -140 c4 -77 12 -160 16 -185 8 -39 9 -32 11 55 1 55 5
138 9 185 l8 85 3 -75 c1 -41 6 -127 9 -190 l6 -115 8 100 c4 55 11 141 16
190 l8 90 3 -120 c5 -241 16 -172 22 140 4 176 5 321 3 323 -2 2 -45 14 -95
27 -50 13 -94 26 -97 29 -4 3 38 6 92 6 85 0 96 2 85 15 -10 12 -38 15 -130
15 -101 0 -119 -3 -133 -18z"/>
<path d="M6628 2539 c-34 -19 -17 -24 79 -21 113 3 108 -5 -21 -39 l-89 -23 6
-140 c4 -78 8 -224 8 -326 2 -200 16 -189 20 15 l2 110 8 -90 c5 -49 12 -135
16 -190 l8 -100 6 115 c3 63 8 149 9 190 l3 75 8 -85 c4 -47 8 -130 9 -185 2
-87 3 -94 11 -55 4 25 12 108 16 185 l7 140 11 -185 10 -185 8 115 c4 63 7
142 8 175 2 112 17 9 19 -135 2 -151 17 -155 20 -5 1 50 6 117 10 150 l7 60 3
-85 c1 -47 6 -128 10 -180 l7 -95 2 80 c11 330 18 135 18 -505 0 -643 -7 -823
-18 -495 -2 62 -5 40 -13 -100 -11 -175 -11 -178 -19 -101 -4 43 -7 111 -8
150 0 39 -4 80 -9 91 -5 13 -9 -31 -10 -120 -3 -151 -17 -254 -19 -135 -1 36
-4 117 -8 180 l-8 115 -10 -185 -11 -185 -7 140 c-4 77 -11 158 -16 180 -7 34
-9 25 -11 -55 -1 -52 -5 -133 -9 -180 l-8 -85 -3 75 c-1 41 -6 127 -9 190 l-6
115 -8 -85 c-3 -47 -11 -132 -15 -190 l-9 -105 -2 110 c-4 199 -18 217 -20 24
0 -97 -4 -243 -7 -325 l-7 -150 99 -26 99 -26 -60 -3 c-33 -1 -75 -2 -92 -2
-18 1 -33 -3 -33 -8 0 -20 46 -29 145 -28 91 1 110 4 126 20 18 18 19 52 19
1208 l0 1190 -22 15 c-26 19 -221 22 -250 5z"/>
<path d="M707 2292 c-16 -17 -17 -99 -17 -970 l0 -951 22 -15 c28 -20 202 -22
245 -4 25 12 19 13 -67 18 l-95 5 95 20 95 20 0 58 c-2 328 -6 438 -15 432 -6
-3 -11 -52 -11 -108 -1 -81 -3 -94 -10 -62 -4 22 -8 69 -9 105 -1 36 -5 85 -9
110 -6 36 -9 14 -16 -105 -8 -128 -10 -142 -16 -95 -4 30 -8 93 -9 140 -2 118
-17 77 -27 -75 l-7 -120 -7 70 c-4 39 -8 104 -9 145 l-3 75 -7 -65 c-4 -36 -8
-98 -9 -138 -1 -46 -5 -71 -11 -67 -6 4 -10 55 -10 121 0 69 -4 114 -10 114
-6 0 -10 -30 -11 -67 -1 -38 -4 -95 -8 -128 -6 -54 -8 -45 -16 85 l-9 145 -12
-135 c-9 -117 -11 -52 -11 475 0 523 6 663 17 405 3 -49 6 -29 14 85 l11 150
8 -85 c4 -47 7 -106 7 -132 0 -27 5 -48 10 -48 6 0 10 45 10 114 0 66 4 117
10 121 6 4 10 -19 11 -62 1 -37 5 -99 9 -138 6 -66 7 -67 8 -19 1 28 5 93 9
145 l8 94 6 -60 c4 -33 7 -89 8 -125 2 -93 21 -115 21 -25 0 39 3 102 8 140 7
69 7 67 17 -80 l11 -150 7 90 c4 50 11 117 16 150 8 58 8 57 10 -42 0 -56 6
-105 11 -108 9 -6 12 88 15 437 l0 53 -95 21 -95 22 94 1 c82 1 92 3 81 16
-10 12 -38 15 -130 15 -101 0 -119 -3 -133 -18z"/>
<path d="M7115 2302 c-116 -4 -120 -22 -5 -22 51 0 91 -2 88 -5 -2 -3 -45 -13
-94 -23 l-89 -18 0 -62 c2 -315 6 -433 15 -427 6 3 11 52 11 108 2 99 2 100
10 42 5 -33 12 -100 16 -150 l7 -90 11 150 c10 147 10 149 17 80 5 -38 8 -101
8 -138 0 -90 20 -79 21 11 1 37 4 96 8 132 6 60 8 55 16 -80 9 -134 10 -140
16 -80 4 36 7 95 8 133 0 37 5 67 11 67 6 0 10 -47 10 -120 0 -73 4 -120 10
-120 6 0 10 32 11 73 1 39 4 99 8 132 6 54 8 45 16 -85 l9 -145 12 135 c9 117
11 52 11 -475 0 -527 -2 -592 -11 -475 l-12 135 -9 -145 c-8 -130 -10 -139
-16 -85 -4 33 -7 90 -8 128 -1 37 -5 67 -11 67 -6 0 -10 -45 -10 -114 0 -66
-4 -117 -10 -121 -6 -4 -10 21 -11 67 -1 40 -5 102 -9 138 l-7 65 -1 -51 c-1
-28 -5 -93 -9 -145 l-8 -94 -6 65 c-4 36 -7 95 -8 132 -2 100 -21 96 -22 -4
-1 -46 -4 -108 -8 -138 -6 -47 -8 -32 -16 100 l-9 155 -9 -95 c-4 -52 -11
-122 -16 -155 -8 -58 -8 -56 -10 42 0 56 -5 105 -11 108 -7 4 -10 -48 -10
-148 0 -85 -3 -195 -6 -245 l-7 -90 39 -10 c21 -6 66 -16 99 -24 l60 -13 -93
-3 c-140 -4 -103 -22 47 -22 85 0 131 4 139 12 19 19 17 1911 -2 1927 -16 13
-70 17 -181 13z"/>
<path d="M292 2048 c-9 -9 -12 -182 -12 -719 0 -389 3 -714 6 -723 5 -14 28
-16 147 -16 77 0 137 3 134 6 -4 4 -44 6 -89 6 -97 -2 -84 11 31 29 l74 11 -7
91 c-3 49 -6 136 -7 191 0 114 -16 107 -20 -9 l-2 -70 -8 55 c-5 30 -11 82
-15 115 -9 70 -10 64 -20 -70 -7 -94 -8 -97 -15 -50 -4 28 -8 79 -9 115 -2 84
-14 49 -26 -76 l-8 -89 -11 110 -11 110 -8 -103 c-5 -56 -11 -100 -15 -97 -3
4 -8 48 -11 98 -6 102 -15 90 -26 -38 l-8 -80 -8 90 c-10 120 -15 140 -18 80
-1 -27 -5 -72 -10 -100 -4 -28 -7 151 -7 405 0 258 3 436 8 410 4 -25 9 -67
10 -95 1 -36 5 -20 13 60 11 103 12 107 19 61 4 -27 7 -70 7 -95 0 -25 5 -53
10 -61 7 -10 10 11 11 70 1 132 15 143 25 20 l8 -105 11 110 11 110 8 -90 c11
-116 24 -152 26 -70 1 33 5 83 9 110 7 46 8 40 16 -65 10 -125 9 -127 33 50
l9 65 2 -70 c5 -147 18 -102 24 80 3 104 4 191 3 192 -2 2 -29 8 -62 13 -133
23 -135 24 -39 30 89 6 88 6 -40 8 -91 1 -135 -2 -143 -10z"/>
<path d="M7434 2049 c-5 -9 17 -11 85 -7 51 3 90 3 87 0 -3 -2 -45 -11 -93
-19 -48 -7 -88 -15 -90 -16 -1 -2 1 -88 4 -192 6 -182 19 -227 24 -80 l2 70 9
-65 c24 -177 23 -175 33 -50 8 109 9 112 16 60 4 -30 8 -80 9 -110 2 -79 17
-38 26 75 l8 90 11 -115 11 -115 8 110 c10 127 24 118 25 -15 1 -59 4 -80 11
-70 5 8 10 38 11 65 0 28 4 70 8 95 6 39 8 30 16 -70 l9 -115 8 80 c4 44 9 89
11 100 2 11 4 -185 4 -435 1 -250 -1 -448 -3 -440 -2 8 -8 56 -12 105 l-8 90
-10 -115 -10 -115 -7 80 c-13 128 -21 140 -27 38 -3 -50 -8 -94 -11 -98 -4 -3
-10 43 -15 102 l-8 108 -11 -115 -11 -115 -8 95 c-11 122 -24 158 -26 70 -1
-36 -5 -87 -9 -115 -7 -46 -8 -40 -16 65 -10 125 -9 127 -33 -50 l-9 -65 -3
70 c-4 120 -18 131 -19 14 -1 -58 -4 -147 -7 -196 l-7 -90 94 -16 94 -15 -88
-1 c-56 -1 -86 -5 -82 -11 9 -15 258 -13 273 2 17 17 17 1429 0 1446 -16 16
-264 17 -274 1z"/>
<path d="M6494 1547 c-2 -7 -3 -111 -2 -232 3 -220 3 -220 26 -223 l22 -3 0
235 c0 231 0 236 -20 236 -11 0 -23 -6 -26 -13z"/>
<path d="M1460 1325 c0 -230 3 -248 38 -213 17 17 17 409 0 426 -35 35 -38 17
-38 -213z"/>
<path d="M1570 1440 c0 -7 817 -10 2430 -10 1613 0 2430 3 2430 10 0 7 -817
10 -2430 10 -1613 0 -2430 -3 -2430 -10z"/>
<path d="M1562 1238 l3 -33 2433 -3 2432 -2 0 35 0 35 -2436 0 -2435 0 3 -32z"/>
</g>
</svg>
